<?xml version="1.0" encoding="utf-8"?>
<!-- Generator: Adobe Illustrator 21.0.0, SVG Export Plug-In . SVG Version: 6.00 Build 0)  -->
<svg version="1.1" id="图层_1" xmlns="http://www.w3.org/2000/svg" xmlns:xlink="http://www.w3.org/1999/xlink" x="0px" y="0px"
	 viewBox="0 0 475.6 461.1" style="enable-background:new 0 0 475.6 461.1;" xml:space="preserve">
<style type="text/css">
	.st0{fill:#ea6f5a;}
</style>
<g>
	<path class="st0" d="M214.6,130.8c0,0-45.3,9.3-36.7,64.7c8.7,55.3,15.3,32.7,2,110c-13.3,77.3,1.3,93.3,1.3,93.3
		s14.7,41.3,66.7,38.7s128-71.3,150.7-107.3s34.7-51.3,12.7-93.3c0,0-30.7-33.3-67.3-46.7c0,0-40.7-4-67.3-33.3
		S214.6,130.8,214.6,130.8z"/>
	<path class="st0" d="M357.9,61.5c0,0,32-12,54,16s8,62.7,8,62.7s-20.7,39.3-65.3,23.3s-30.7-78.7-30.7-78.7S334.3,63.5,357.9,61.5z
		"/>
	<path class="st0" d="M220.6,15.5c0,0,57.3-10,69.3,32s-9.3,60.7-9.3,60.7s-39.3,32-82,0C198.6,108.1,157.3,55.5,220.6,15.5z"/>
	<path class="st0" d="M65.3,95.5c0,0,38-49.3,88-16.7c0,0,34.7,34.7,4,74.7c0,0-26.7,48-82,18.7C75.3,172.1,39.9,147.5,65.3,95.5z"
		/>
	<path class="st0" d="M56.1,219.5c0,0,33.1-32,73.8,13.3c0,0,37.3,46.7-6,84c0,0-43.3,38-79.3-23.3
		C44.6,293.5,26.3,245.5,56.1,219.5z"/>
</g>
</svg>
